<svg width="20" height="20" viewBox="0 0 20 20" fill="none" xmlns="http://www.w3.org/2000/svg">
<g clip-path="url(#clip0_1_14)">
<path d="M10 0.000520706C4.486 0.000520706 0 4.48634 0 9.99998C0 15.5137 4.486 19.9995 10 19.9995C15.514 19.9995 20 15.5137 20 9.99998C20 4.48634 15.514 0.000520706 10 0.000520706ZM10 18.1814C5.48855 18.1814 1.81818 14.5112 1.81818 10C1.81818 5.48882 5.48855 1.8187 10 1.8187C14.5115 1.8187 18.1818 5.48882 18.1818 9.99998C18.1818 14.5113 14.5115 18.1814 10 18.1814Z" fill="#848484"/>
<path d="M10 7.87927C9.49794 7.87927 9.09091 8.2863 9.09091 8.78836V14.8479C9.09091 15.35 9.49794 15.757 10 15.757C10.5021 15.757 10.9091 15.35 10.9091 14.8479V8.78836C10.9091 8.28636 10.5021 7.87927 10 7.87927Z" fill="#848484"/>
<path d="M10 4.24309C9.76061 4.24309 9.52661 4.34006 9.35697 4.50915C9.18788 4.67824 9.09091 4.91279 9.09091 5.15218C9.09091 5.39157 9.18788 5.62551 9.35697 5.79521C9.52606 5.9643 9.76061 6.06127 10 6.06127C10.2394 6.06127 10.4733 5.9643 10.643 5.79521C10.8121 5.62551 10.9091 5.39157 10.9091 5.15218C10.9091 4.91279 10.8121 4.67824 10.643 4.50915C10.4733 4.34 10.2394 4.24309 10 4.24309Z" fill="#848484"/>
</g>
<defs>
<clipPath id="clip0_1_14">
<rect width="20" height="20" fill="white"/>
</clipPath>
</defs>
</svg>
